<svg height="35.668" viewBox="0 0 302 35.668" width="302" xmlns="http://www.w3.org/2000/svg"><defs><style>.a{fill:#f2bb17;}.b{fill:#5ca1d8;}</style></defs><g transform="translate(-11.299 -254.413)"><path class="a" d="M8.592,33.735h-7.2a1.094,1.094,0,0,1-.948-1.641L9.22,16.846h2.625v4.547a.656.656,0,0,0,.65.65l4.369.007v3.109H12.49a.65.65,0,0,0-.65.649v5.125H9.105a.6.6,0,0,0-.517.65v2.152Zm13.639,0H15.951V28.869l6.282.01v4.856Zm15,0H29.59V31.582a.6.6,0,0,0-.531-.65H26.13V25.808a.65.65,0,0,0-.65-.649H21.411v-3.1l4.073.007a.656.656,0,0,0,.65-.65l-.007-.248a.588.588,0,0,0,.007-.1V16.847h3.273L38.183,32.1a1.094,1.094,0,0,1-.948,1.641Zm-15-15.077h0l-6.281-.009v-4.6a.656.656,0,0,0-.65-.65H11.2L18.362.956a1.094,1.094,0,0,1,1.9,0L27.416,13.4H22.883a.656.656,0,0,0-.651.65v4.611Z" transform="translate(11 254.005)"></path><path class="b" d="M52.128-30.724a7.807,7.807,0,0,1,5.379,1.75,5.849,5.849,0,0,1,1.969,4.594A5.8,5.8,0,0,1,57.507-19.8a7.866,7.866,0,0,1-5.379,1.732H48.773v4.4l2.128.409v2.38H42.677v-2.387l2.113-.409V-27.915l-2.113-.409v-2.4h9.451Zm-3.355,9.586h3.355a3.29,3.29,0,0,0,2.516-.907,3.241,3.241,0,0,0,.852-2.311,3.376,3.376,0,0,0-.852-2.366,3.236,3.236,0,0,0-2.516-.934H48.773Zm30.125.491a10.552,10.552,0,0,1-2.5,7.219,8.267,8.267,0,0,1-6.532,2.851,8.191,8.191,0,0,1-6.494-2.855A10.61,10.61,0,0,1,60.9-20.65v-.3a10.638,10.638,0,0,1,2.469-7.2,8.153,8.153,0,0,1,6.492-2.864,8.27,8.27,0,0,1,6.531,2.868,10.547,10.547,0,0,1,2.5,7.2Zm-3.968-.328a8.867,8.867,0,0,0-1.282-5.005A4.266,4.266,0,0,0,69.857-27.9a4.157,4.157,0,0,0-3.746,1.911,9.117,9.117,0,0,0-1.234,5.019v.328a9.13,9.13,0,0,0,1.248,5.052,4.17,4.17,0,0,0,3.743,1.916,4.245,4.245,0,0,0,3.79-1.917,9.015,9.015,0,0,0,1.268-5.052Zm29.985-7.351-1.641.2L99.254-10.872H95.56l-3.64-13.1h-.082L88.2-10.872H84.5L80.453-28.124l-1.623-.2v-2.4h7.31v2.4l-1.814.314L86.6-17.132l.082.013L90.4-30.729h2.933l3.751,13.615.082-.013L99.434-28.01l-1.814-.314v-2.4h7.3ZM118.908-19.6h-6.724v5.674h6.41l.177-2.373H121.8v5.424H106.088v-2.387l2.113-.409V-27.915l-2.113-.409v-2.4h15.683v5.442h-3.055l-.177-2.373h-6.355v4.991h6.724Zm13.938-11.127a8.238,8.238,0,0,1,5.305,1.548,5.186,5.186,0,0,1,1.923,4.276,4.3,4.3,0,0,1-.805,2.6,5.625,5.625,0,0,1-2.359,1.786,4.285,4.285,0,0,1,2.53,1.725,5.457,5.457,0,0,1,.766,2.994v1.01a1.722,1.722,0,0,0,.259,1.016,1.156,1.156,0,0,0,.859.43l.491.068v2.4h-2.06a3.222,3.222,0,0,1-2.741-1.05,4.39,4.39,0,0,1-.791-2.714v-1.132a3.2,3.2,0,0,0-.766-2.271,2.953,2.953,0,0,0-2.176-.866h-3.26v5.237l2.128.409v2.387h-8.223v-2.387l2.113-.409V-27.915l-2.113-.409v-2.4h8.919Zm-2.823,8.751h2.754a3.766,3.766,0,0,0,2.5-.709,2.54,2.54,0,0,0,.832-2.045,2.832,2.832,0,0,0-.825-2.134,3.37,3.37,0,0,0-2.434-.8h-2.823Z" transform="translate(40.183 294.06)"></path><path class="a" d="M20.337-25.4l-.082-.013-5.318,14.7H12.263L6.972-25.361l-.082.009.382,8.715v3.123l2.128.409v2.387H1.176V-13.1l2.113-.409V-27.759l-2.113-.409v-2.4H8.485l5.059,14.633h.082l5.1-14.633h7.337v2.4l-2.129.411v14.252l2.128.409v2.387H17.841V-13.1l2.113-.409v-3.123Z" transform="translate(54.728 293.906)"></path><path class="b" d="M6.691-11.317H4.318v-20.4H15.694v2.107h-9v7.465h8.456v2.107H6.691Zm14.346,0H18.719v-15.3h2.315ZM18.52-30.755a1.539,1.539,0,0,1,.391-1.165,1.365,1.365,0,0,1,.977-.37,1.365,1.365,0,0,1,.963.376,1.511,1.511,0,0,1,.4,1.158,1.531,1.531,0,0,1-.4,1.165,1.351,1.351,0,0,1-.963.384,1.338,1.338,0,0,1-.977-.384,1.567,1.567,0,0,1-.386-1.166ZM36.415-11.317V-21.21A3.991,3.991,0,0,0,35.564-24a3.467,3.467,0,0,0-2.666-.921,4.4,4.4,0,0,0-3.517,1.3,6.552,6.552,0,0,0-1.117,4.285v8.024H25.949v-15.3h1.884l.376,2.094h.109a4.73,4.73,0,0,1,2-1.75,6.483,6.483,0,0,1,2.86-.621,5.809,5.809,0,0,1,4.157,1.332,5.672,5.672,0,0,1,1.4,4.266v9.978Zm16.481,0-.461-2.177h-.109a6.436,6.436,0,0,1-2.282,1.947,6.955,6.955,0,0,1-2.844.51,5.108,5.108,0,0,1-3.566-1.173,4.276,4.276,0,0,1-1.291-3.335q0-4.633,7.41-4.857l2.6-.086v-.949a3.878,3.878,0,0,0-.774-2.658,3.185,3.185,0,0,0-2.476-.859,10.093,10.093,0,0,0-4.329,1.175l-.712-1.772a10.886,10.886,0,0,1,2.476-.963,10.729,10.729,0,0,1,2.7-.349,5.826,5.826,0,0,1,4.054,1.214,5.068,5.068,0,0,1,1.326,3.893v10.439ZM47.662-12.95a4.7,4.7,0,0,0,3.4-1.186,4.388,4.388,0,0,0,1.235-3.321v-1.382l-2.317.1a8.423,8.423,0,0,0-3.984.859,2.588,2.588,0,0,0-1.224,2.365,2.387,2.387,0,0,0,.766,1.912,3.157,3.157,0,0,0,2.125.655Zm22.189,1.633V-21.21A3.991,3.991,0,0,0,69-24a3.467,3.467,0,0,0-2.666-.921,4.4,4.4,0,0,0-3.516,1.3A6.552,6.552,0,0,0,61.7-19.341v8.024H59.384v-15.3h1.884l.376,2.094h.109a4.73,4.73,0,0,1,2-1.75,6.483,6.483,0,0,1,2.86-.621,5.809,5.809,0,0,1,4.157,1.332,5.672,5.672,0,0,1,1.4,4.266v9.978Zm13.187.279A6.527,6.527,0,0,1,77.9-13.082a8.407,8.407,0,0,1-1.821-5.784A8.669,8.669,0,0,1,77.925-24.8a6.657,6.657,0,0,1,5.268-2.094,10.454,10.454,0,0,1,2.205.237,7.263,7.263,0,0,1,1.73.558l-.712,1.969a10.892,10.892,0,0,0-1.675-.51,7.476,7.476,0,0,0-1.6-.2q-4.661,0-4.661,5.945a7.078,7.078,0,0,0,1.138,4.326,3.956,3.956,0,0,0,3.37,1.507,10.3,10.3,0,0,0,3.921-.824v2.051a8.357,8.357,0,0,1-3.868.8Zm9.811-.279H90.531v-15.3h2.317ZM90.333-30.755a1.539,1.539,0,0,1,.391-1.165,1.365,1.365,0,0,1,.977-.37,1.365,1.365,0,0,1,.963.376,1.511,1.511,0,0,1,.4,1.158,1.531,1.531,0,0,1-.4,1.165,1.351,1.351,0,0,1-.963.384,1.338,1.338,0,0,1-.977-.384,1.567,1.567,0,0,1-.388-1.166Zm17.892,19.439V-21.21A3.991,3.991,0,0,0,107.374-24a3.467,3.467,0,0,0-2.666-.921,4.4,4.4,0,0,0-3.517,1.3,6.552,6.552,0,0,0-1.117,4.285v8.024H97.759v-15.3h1.884l.376,2.094h.109a4.73,4.73,0,0,1,2-1.75,6.483,6.483,0,0,1,2.86-.621,5.809,5.809,0,0,1,4.157,1.332,5.672,5.672,0,0,1,1.4,4.266v9.978Zm19.593-15.3v1.466l-2.833.335a4.87,4.87,0,0,1,.7,1.277,4.872,4.872,0,0,1,.307,1.78,4.521,4.521,0,0,1-1.531,3.587,6.192,6.192,0,0,1-4.215,1.34,7.018,7.018,0,0,1-1.284-.109,2.28,2.28,0,0,0-1.479,1.969,1,1,0,0,0,.516.928,3.772,3.772,0,0,0,1.772.3h2.707a6.062,6.062,0,0,1,3.816,1.047,3.636,3.636,0,0,1,1.332,3.042,4.343,4.343,0,0,1-2.038,3.872,10.9,10.9,0,0,1-5.945,1.332,8.122,8.122,0,0,1-4.626-1.117,3.61,3.61,0,0,1-1.625-3.154,3.542,3.542,0,0,1,.893-2.414,4.547,4.547,0,0,1,2.516-1.382,2.423,2.423,0,0,1-.984-.824,2.179,2.179,0,0,1-.4-1.3,2.463,2.463,0,0,1,.446-1.466,4.7,4.7,0,0,1,1.41-1.214,4.131,4.131,0,0,1-1.933-1.66,4.88,4.88,0,0,1-.747-2.679,4.948,4.948,0,0,1,1.507-3.872,6.153,6.153,0,0,1,4.266-1.361,7.766,7.766,0,0,1,2.163.279Zm-12.2,17.862a2.078,2.078,0,0,0,1.047,1.884,5.777,5.777,0,0,0,3,.642,8.372,8.372,0,0,0,4.318-.875,2.67,2.67,0,0,0,1.4-2.362,1.872,1.872,0,0,0-.766-1.728,5.961,5.961,0,0,0-2.889-.481h-2.777a3.658,3.658,0,0,0-2.456.754,2.693,2.693,0,0,0-.877,2.168Zm1.256-12.964a3.114,3.114,0,0,0,.907,2.428,3.622,3.622,0,0,0,2.526.824q3.391,0,3.391-3.294,0-3.447-3.432-3.447a3.4,3.4,0,0,0-2.516.875,3.541,3.541,0,0,0-.875,2.614Z" transform="translate(185.481 294.51)"></path></g></svg>