<svg version="1.1" id="Layer_1" xmlns:x="ns_extend;" xmlns:i="ns_ai;" xmlns:graph="ns_graphs;" xmlns="http://www.w3.org/2000/svg" xmlns:xlink="http://www.w3.org/1999/xlink" x="0px" y="0px" viewBox="0 0 218.8 60" style="enable-background:new 0 0 218.8 60;" xml:space="preserve">
 <style type="text/css">
  .st0{fill-rule:evenodd;clip-rule:evenodd;fill:#007FAA;}
 </style>
 <metadata>
  <sfw xmlns="ns_sfw;">
   <slices>
   </slices>
   <sliceSourceBounds bottomLeftOrigin="true" height="60" width="218.8" x="91.5" y="-230.2">
   </sliceSourceBounds>
  </sfw>
 </metadata>
 <g>
  <path class="st0" d="M218.8,19.2h-4.6l-5,14.9h-0.1l-5.2-14.9h-4.8l7.5,19.8l-0.5,1.5c-0.5,1.7-1,2.8-3.1,2.8
		c-0.7,0-1.4-0.2-2.1-0.3v3.7c1,0.2,2,0.2,3,0.2c4.6,0,5.6-3.2,7-6.8C211.1,40.2,218.8,19.2,218.8,19.2z M195.9,38V19.2h-4.4v2.7
		h-0.1c-1.1-2.2-3.4-3.3-5.9-3.3c-5.7,0-9,4.6-9,10c0,5.7,2.6,10.5,8.9,10.5c2.5,0,4.7-1.3,6-3.5h0.1v3c0,3.3-1.6,5.1-5.1,5.1
		c-2.2,0-4.2-0.4-4.8-2.9h-4.4c0.4,4.7,4.9,6.2,8.9,6.2C192.4,47,195.9,44,195.9,38L195.9,38z M191.5,28.7l0,0.2
		c-0.1,3.3-1.5,6.7-5.3,6.7c-3.5,0-5.1-3.1-5.2-6.3c0-0.1,0-0.2,0-0.3c0-3.3,1.3-6.9,5.2-6.9C190,22.1,191.5,25.3,191.5,28.7
		L191.5,28.7z M168.3,39.1h4.4V19.2h-4.4V39.1L168.3,39.1z M168.3,15.8h4.4v-4.2h-4.4C168.3,11.6,168.3,15.8,168.3,15.8z
		 M166.2,54.5c0-0.3,0.1-0.6,0.1-0.9c0-3.2-2.2-6-5.6-6c-3.5,0-5.7,2.9-5.7,6.2c0,3.6,2.1,6.2,5.7,6.2c2.6,0,4.7-1.4,5.3-4h-2.5
		c-0.5,1.3-1.4,2-2.9,2c-2.2,0-3.2-1.6-3.2-3.5L166.2,54.5L166.2,54.5z M163.6,52.8h-6c0.1-1.7,1.3-3.1,3.1-3.1
		C162.4,49.7,163.5,51.1,163.6,52.8L163.6,52.8z M159.8,39.1h4.2V11.6h-4.4v10.2h-0.1c-1.3-2.2-4.1-3.1-6.6-3.1
		c-4.3,0-8.6,3.2-8.6,10.4c0,0.6,0,1.3,0.1,1.9c0.6,5,3.6,8.8,9.2,8.8c2.5,0,5-1,6.2-3.2h0.1L159.8,39.1L159.8,39.1z M159.8,29.1
		c0,3.5-1.7,7-5.6,7c-3.8,0-5.5-3.4-5.5-6.8c0-3.6,1.5-7.2,5.6-7.2C157.6,22.1,159.8,24.7,159.8,29.1L159.8,29.1z M148,47.6
		c-3.9,0-5.8,2.8-5.8,6.3c0,3.5,2,6.1,5.7,6.1c3,0,4.9-1.7,5.4-4.7h-2.6c-0.2,1.7-1.3,2.7-2.8,2.7c-2.2,0-3.1-2.1-3.1-4
		c0-3.6,1.9-4.3,3.2-4.3c1.4,0,2.4,0.7,2.7,2.1c0,0,0,0.1,0,0.1h2.6C153,49,150.7,47.6,148,47.6L148,47.6z M141.4,29.1
		c0-6.1-3.7-10.5-10-10.5c-6.4,0-10,4.4-10,10.5c0,6.1,3.7,10.5,10,10.5C137.7,39.6,141.4,35.2,141.4,29.1z M137,29.1
		c0,3.5-1.7,7-5.7,7c-3.9,0-5.7-3.6-5.7-7c0-3.4,1.7-7,5.7-7C135.3,22.1,137,25.7,137,29.1z M117.9,22.8c0.6,0,1.3,0.1,1.9,0.2v-4.2
		c-0.4,0-0.7-0.1-1.7-0.1c-2.7,0-5.3,2.3-5.8,4.4h-0.1v-3.8h-4.1v19.9h4.4v-9.5C112.6,25.2,114.9,22.8,117.9,22.8L117.9,22.8z
		 M109.8,47.6c-1.4,0.1-2.8,0.8-3.5,2.1l0,0v-1.7h-2.5v11.7h2.6v-6.9c0-1.7,1.1-3.1,2.8-3.1c0.7,0,1.2,0.2,1.6,0.5
		c0.4,0.4,0.6,1.1,0.7,2.1v7.4h2.6v-8.1c0-2.6-1.6-4-4.2-4C109.9,47.6,109.8,47.6,109.8,47.6L109.8,47.6z M104.7,20.7
		c0-3.4-1.5-9.1-9.4-9.1h-8.5v27.5h4.5v-9.3h4.1C103.2,29.8,104.7,24.1,104.7,20.7L104.7,20.7z M100.3,20.7c0,3.5-2.7,5.2-4.8,5.2
		h-4.2V15.5h4.3c2.5,0,4.6,1.4,4.7,4.8C100.3,20.4,100.3,20.6,100.3,20.7L100.3,20.7z M69.9,45.4c5.1-6.5,7.8-14.4,7.8-22.9
		c0-3.6-0.5-7.2-1.4-10.7l-0.2-0.6l-0.6,0c-0.3,0-0.6,0-0.9,0c-5,0-9.8,0.9-14.3,2.6c-1.1-3.4-2.8-6.7-4.8-9.7
		c-0.8-1.2-1.8-2.5-2.7-3.6L52.4,0l-0.6,0.2c-5,2.2-9.4,5.3-13,9.1c-0.6-0.7-1.3-1.3-2-1.9l-0.1-0.1c-1.2-1.1-2.4-2.1-3.7-3
		l-0.1-0.1c-2.2-1.6-4.6-2.9-7.1-4L25.2,0l-0.4,0.5c-3.4,4-5.9,8.5-7.5,13.3c-1-0.4-1.9-0.7-2.9-1l-0.1-0.1h-0.2c-1-0.3-2-0.5-3-0.7
		L11.1,12h-0.2l-0.1,0c-2.8-0.5-5.7-0.8-8.5-0.7l-0.6,0l-0.2,0.6c-3.3,12-1,24.3,6.3,33.6c3.5,4.4,7.9,8,13,10.4l0.2,0.1h0
		c4.9,2.3,10.4,3.6,16,3.7l0,0h0.2c0.6,0,1.2,0,1.8,0h0c0.6,0,1.2,0,1.8,0h0.1l0,0C52.5,59.4,63,54.2,69.9,45.4L69.9,45.4z M34,50
		c-1.1-2.3-2-4.7-2.6-7.1c-1.3-5.4-1.4-10.9-0.2-16.3c0.1-0.3,0.1-0.5,0.2-0.8c1,1.3,2,2.6,2.8,4l2.9,6.1c0.3,0.9,0.6,1.7,0.8,2.6
		l0.8,2.8l0.8-2.8c1.3-4.6,3.5-8.9,6.6-12.6c0.7,2.8,1.1,5.7,1.1,8.6c0,8.2-3,16.4-8.4,23.2C36.9,55.3,35.3,52.7,34,50z M16.9,15.3
		c-0.9,3.3-1.4,6.7-1.4,10.1c0,2.7,0.3,5.5,0.9,8.1c2.4,10.4,9.2,19.1,18.8,24.4c-4.8-0.3-9.5-1.6-13.7-3.6l0,0l-0.2-0.1h0
		c-4.8-2.3-9-5.7-12.2-9.9C2.2,35.7,0,24.2,2.9,12.8c2.5,0,5.1,0.2,7.5,0.7l0.3,0c1,0.2,2,0.4,3,0.7l0.3,0.1h0
		C14.9,14.6,15.9,15,16.9,15.3L16.9,15.3z M18.4,16c4.5,1.9,8.6,4.8,11.9,8.4c-0.2,0.6-0.4,1.3-0.5,1.9c-1.3,5.6-1.2,11.4,0.2,17
		c0.6,2.6,1.5,5,2.7,7.4c1,2,2.2,4,3.5,5.9c-9.3-5.1-15.8-13.4-18.1-23.4c-0.6-2.5-0.9-5.2-0.9-7.8C17.1,22.3,17.5,19.1,18.4,16
		L18.4,16z M37.7,10.6c-3.1,3.5-5.4,7.6-6.9,12l0,0l0,0c-3.4-3.5-7.4-6.3-11.9-8.2c1.5-4.5,3.8-8.7,6.9-12.4C27.9,3,30,4.2,32,5.6
		l0.1,0.1c1.2,0.9,2.4,1.8,3.5,2.8l0.1,0.1l0.1,0C36.5,9.3,37.1,9.9,37.7,10.6L37.7,10.6z M38.8,11.8c3.1,3.6,5.4,7.7,6.8,12.2
		c-0.4,0.5-0.8,1-1.2,1.5c-2.4,3-4.3,6.5-5.6,10.1l-0.1-0.3c-1.3-3.6-3.1-6.9-5.5-9.9c-0.4-0.5-0.8-1-1.2-1.5
		C33.5,19.5,35.8,15.4,38.8,11.8z M58.8,14.4c-4.5,1.9-8.5,4.7-11.9,8.2l0,0l0,0c-1.5-4.4-3.9-8.5-6.9-12C43.3,7,47.3,4.1,52,2
		c0.8,1,1.5,2,2.2,3C56.2,7.9,57.7,11.1,58.8,14.4z M60.6,25.4c0,2.6-0.3,5.2-0.9,7.8c-2.3,9.9-8.8,18.3-18.1,23.4
		c4.7-6.6,7.2-14.4,7.2-22.1c0-2.7-0.3-5.5-0.9-8.2c-0.1-0.6-0.3-1.3-0.5-1.9c3.3-3.6,7.4-6.5,11.9-8.4
		C60.2,19.1,60.6,22.3,60.6,25.4L60.6,25.4z M76,22.5c0,8.1-2.6,15.7-7.4,21.9C62.4,52.4,53,57.3,42.5,58c9.7-5.3,16.4-14,18.8-24.4
		c0.6-2.7,0.9-5.4,0.9-8.1c0-3.4-0.5-6.8-1.4-10.1c4.3-1.7,9-2.5,13.8-2.5h0.2C75.6,16,76,19.3,76,22.5L76,22.5z M96.3,43.5h-9.5
		v16.2h2.5v-7.2h5.9v-2.3h-5.9v-4.2h7L96.3,43.5L96.3,43.5z M98.5,45.9h2.6v-2.5h-2.6V45.9z M98.5,59.7h2.6V47.9h-2.6
		C98.5,47.9,98.5,59.7,98.5,59.7z M116.3,56.6c0,0.1,0,0.1,0,0.2c0.1,2.2,2,3.2,4,3.2c1.4,0,3-0.4,4.1-1.4c0.2,1.1,1,1.4,2,1.4
		c0.4,0,1.3-0.2,1.6-0.3v-1.8c-0.2,0-0.4,0-0.6,0h-0.1c-0.5,0-0.6-0.2-0.6-0.9v-6c0-2.5-2.4-3.4-4.7-3.4c-2.6,0-5.2,0.9-5.3,3.9h2.6
		c0.1-1.3,1.1-1.9,2.6-1.9c1,0,2.4,0.2,2.4,1.6c0,1.5-1.7,1.3-3.5,1.7C118.7,53.2,116.3,53.6,116.3,56.6z M118.9,56.5
		c0-1.4,1-1.8,2.1-2c1.1-0.2,2.4-0.2,3.2-0.7v1.9c0,1.6-1.8,2.2-2.9,2.2C120.4,58,118.9,57.6,118.9,56.5L118.9,56.5z M132.3,47.9
		h-2.5v11.7h2.6v-6.9c0-1.7,1.1-3.1,2.8-3.1c1.5,0,2.2,0.8,2.3,2.6v7.4h2.6v-8.1c0-2.6-1.6-4-4.2-4c-0.1,0-0.1,0-0.2,0
		c-0.4,0-0.7,0.1-1.1,0.2c-1,0.3-1.9,1-2.4,1.9l0,0V47.9L132.3,47.9z">
  </path>
 </g>
</svg>